<?xml version="1.0" encoding="utf-8"?>
<svg version="1.2" baseProfile="tiny"
    xmlns="http://www.w3.org/2000/svg"
    xmlns:svg="http://www.w3.org/2000/svg"
    xmlns:xlink="http://www.w3.org/1999/xlink"
    viewBox="0 0 225 314" 
    fill="#d40000">
    <defs>
        <polygon id="suit" points="28.5,0 48.612,29 28.5,58 8.388,29"/>
        <path id="numeral" d="M0,23.89l3.221-0.026c0.611,1.942,1.973,3.926,3.816,4.473c5.211,1.225,8.567-1.688,9.673-5.047c1.34-4.072-0.03-9.794-3.617-11.827c-2.977-1.686-7.396-0.264-9.422,3.338l-2.259-1.379L2.624,0h14.73v3.172H5.416l-0.187,5.59c2.564-1.802,6.518-1.783,9.085-0.52c4.866,2.318,7.124,7.593,6.178,13.81c-1.311,6.185-4.197,9.688-10.718,10.189C2.529,32.304-0.029,27.324,0,23.89L0,23.89z"/>
    </defs>

        <rect width="100%" height="100%" rx="20" ry="20" fill="#000000"/>
    <rect width="94%" height="94%" x="3%" y="3%" rx="20" ry="20" fill="#FEFEFE"/>

    <!-- Little Card -->
    <g class="mini-card">
        <use xlink:href="#numeral" transform="matrix(3.5,0,0,3.5,15,33.95)"/>
        <use xlink:href="#suit" transform="matrix(2,0,0,2,90,33.95)"/>
    </g>

    <!-- Big Card -->
    
</svg>
