<?xml version="1.0" encoding="utf-8"?>
<svg version="1.2" baseProfile="tiny"
    xmlns="http://www.w3.org/2000/svg"
    xmlns:svg="http://www.w3.org/2000/svg"
    xmlns:xlink="http://www.w3.org/1999/xlink"
    viewBox="0 0 225 314">
    <defs>
        <path id="suit" d="M20.976,57.141c2.879-5.775,4.976-11.7,5.348-18.037c0.342-2.331-1.074-2.37-1.288-0.729
            c-4.076,15.593-25.763,11.37-25.017-3.296c0.604-11.896,12.42-14.454,18.582-10.565c2.434,1.434,2.295,0.575,0.967-0.911
            C10.416,13.391,15.958,0.241,28.331,0c13.38,0.793,16.853,14.87,8.646,23.147c-1.021,0.994-3.283,4.191,0.123,1.956
            c8.287-5.888,19.787,0.443,19.553,9.521c-0.434,16.738-20.84,17.986-25.203,4.006c-0.42-1.55-1.629-2.328-1.295,0.305
            c0.604,4.767,1.855,11.953,5.438,18.205L20.976,57.141L20.976,57.141z"/>
        <path id="numeral" d="M19.876,0H9.635v3.498h3.809c0,0-0.045-0.664-0.012,7.141c0.021,5.473,0.016,8.967-0.049,11.266
            c0.018,3.062-0.486,4.936-1.691,6.061c-1.908,1.604-5.641,1.443-7.021-0.067c-1.021-1.187-1.237-3.453-1.176-6.121H0.016
            c0,0,0.002,1.291,0,1.971c-0.605,12.592,16.264,10.457,16.803,1.67c0.113-1.877,0.057-1.194,0.01-11.598
            c-0.049-11.147-0.01-10.32-0.01-10.32h3.057V0z"/>
    </defs>

        <rect width="100%" height="100%" rx="20" ry="20" fill="#000000"/>
    <rect width="94%" height="94%" x="3%" y="3%" rx="20" ry="20" fill="#FEFEFE"/>

    <!-- Little Card -->
    <g class="mini-card">
        <use xlink:href="#numeral" transform="matrix(3.5,0,0,3.5,15,33.95)"/>
        <use xlink:href="#suit" transform="matrix(2,0,0,2,90,33.95)"/>
    </g>
</svg>
