<?xml version="1.0" encoding="utf-8"?>
<svg version="1.2" baseProfile="tiny"
    xmlns="http://www.w3.org/2000/svg"
    xmlns:svg="http://www.w3.org/2000/svg"
    xmlns:xlink="http://www.w3.org/1999/xlink"
    viewBox="0 0 225 314">
    <defs>
        <path id="suit" d="M26.406,40.187c0.015-1.979-1.561-2.017-1.542-0.573c-0.133,7.257-6.311,10.83-10.799,9.982
            c-6.92-1.307-9.129-8.129-9.062-12.148C5.205,25.046,17.775,15.9,29.116,0c8.311,14.351,22.028,25.623,22.839,36.717
            c1.08,14.749-17.711,20.25-20.394,3.06c-0.173-1.214-1.613-1.759-1.501-0.063c0.408,4.711-0.171,6.674,5.179,18.287H21.252
            C24.351,52.574,26.195,45.911,26.406,40.187L26.406,40.187z"/>
        <path id="numeral" d="M19.876,0H9.635v3.498h3.809c0,0-0.045-0.664-0.012,7.141c0.021,5.473,0.016,8.967-0.049,11.266
            c0.018,3.062-0.486,4.936-1.691,6.061c-1.908,1.604-5.641,1.443-7.021-0.067c-1.021-1.187-1.237-3.453-1.176-6.121H0.016
            c0,0,0.002,1.291,0,1.971c-0.605,12.592,16.264,10.457,16.803,1.67c0.113-1.877,0.057-1.194,0.01-11.598
            c-0.049-11.147-0.01-10.32-0.01-10.32h3.057V0z"/>
    </defs>

        <rect width="100%" height="100%" rx="20" ry="20" fill="#000000"/>
    <rect width="94%" height="94%" x="3%" y="3%" rx="20" ry="20" fill="#FEFEFE"/>

    <!-- Little Card -->
    <g class="mini-card">
        <use xlink:href="#numeral" transform="matrix(3.5,0,0,3.5,15,33.95)"/>
        <use xlink:href="#suit" transform="matrix(2,0,0,2,90,33.95)"/>
    </g>
</svg>
