<?xml version="1.0" encoding="utf-8"?>
<svg version="1.2" baseProfile="tiny"
    xmlns="http://www.w3.org/2000/svg"
    xmlns:svg="http://www.w3.org/2000/svg"
    xmlns:xlink="http://www.w3.org/1999/xlink"
    viewBox="0 0 225 314" 
    fill="#d40000">
    <defs>
        <polygon id="suit" points="28.5,0 48.612,29 28.5,58 8.388,29"/>
        <polygon id="numeral" points="0,0 0,2.871 2.937,2.871 2.937,27.849 0,27.849 0,30.942 8.532,30.942 8.532,27.849 6.271,27.849 6.271,20.764 9.698,16.015 14.838,27.849 11.557,27.849 11.557,30.942 20.863,30.942 20.863,27.849 18.637,27.849 11.823,12.635 18.297,2.824 20.697,2.871 20.697,0 11.456,0 11.456,2.871 14.12,2.871 6.271,14.916 6.271,2.871 8.6,2.871 8.6,0 "/>
    </defs>

        <rect width="100%" height="100%" rx="20" ry="20" fill="#000000"/>
    <rect width="94%" height="94%" x="3%" y="3%" rx="20" ry="20" fill="#FEFEFE"/>

    <!-- Little Card -->
    <g class="mini-card">
        <use xlink:href="#numeral" transform="matrix(3.5,0,0,3.5,15,33.95)"/>
        <use xlink:href="#suit" transform="matrix(2,0,0,2,90,33.95)"/>
    </g>
</svg>
