<?xml version="1.0" encoding="utf-8"?>
<svg version="1.2" baseProfile="tiny"
    xmlns="http://www.w3.org/2000/svg"
    xmlns:svg="http://www.w3.org/2000/svg"
    xmlns:xlink="http://www.w3.org/1999/xlink"
    viewBox="0 0 225 314">
    <defs>
        <path id="suit" d="M20.976,57.141c2.879-5.775,4.976-11.7,5.348-18.037c0.342-2.331-1.074-2.37-1.288-0.729
            c-4.076,15.593-25.763,11.37-25.017-3.296c0.604-11.896,12.42-14.454,18.582-10.565c2.434,1.434,2.295,0.575,0.967-0.911
            C10.416,13.391,15.958,0.241,28.331,0c13.38,0.793,16.853,14.87,8.646,23.147c-1.021,0.994-3.283,4.191,0.123,1.956
            c8.287-5.888,19.787,0.443,19.553,9.521c-0.434,16.738-20.84,17.986-25.203,4.006c-0.42-1.55-1.629-2.328-1.295,0.305
            c0.604,4.767,1.855,11.953,5.438,18.205L20.976,57.141L20.976,57.141z"/>
        <path id="numeral" d="M9.842,0C5.149,0.091,2.822,4.021,2.797,7.953l0.004,10.317H0v3.426h2.801c0,0,0.049,1.564,0.041,2.503
            c-0.039,4.637,1.6,7.447,4.797,8.226c3.066,0.559,4.666-0.102,7-1.311c0.849,0.353,1.441,1.08,2.349,1.172
            c1.004,0.102,3.096,0.054,3.096,0.054l-0.058-3.515l-1.045-0.152c-2-0.034-2.866-0.733-2.649-1.982
            c0.424-0.813,0.485-1.405,0.524-2.389V6.849C16.796,2.572,13.299,0.038,9.842,0z M9.697,3.403c2.239-0.035,4.104,2.573,4.053,5.246
            l0.035,13.481c0.073,0.848-0.062,1.677-0.437,2.259c-0.295-0.86-4.93-5.597-7.248-5.378c0,0-0.094,0.239-0.16-5.686
            c-0.028-2.91-0.793-7.253,1.822-9.214C8.415,3.63,9.07,3.412,9.697,3.403z M12.038,28.031c0.205,0.416-0.556,0.826-1.367,1.053
            c-2.295,0.64-4.545-0.791-4.617-4.08c-0.021-1.003-0.088-2.075,0.265-2.233C7.372,22.296,11.417,26.779,12.038,28.031z"/>
    </defs>

    <rect width="100%" height="100%" x="0" y="0" fill="#fefefe"/>

    <!-- Little Card -->
    <g class="mini-card">
        <use xlink:href="#numeral" transform="matrix(3.5,0,0,3.5,15,33.95)"/>
        <use xlink:href="#suit" transform="matrix(2,0,0,2,90,33.95)"/>
    </g>
</svg>
