<?xml version="1.0" encoding="utf-8"?>
<svg version="1.2" baseProfile="tiny"
    xmlns="http://www.w3.org/2000/svg"
    xmlns:svg="http://www.w3.org/2000/svg"
    xmlns:xlink="http://www.w3.org/1999/xlink"
    viewBox="0 0 225 314" 
    fill="#d40000">
    <defs>
        <path id="suit" d="M16.491,0.199
            c7.12-0.475,10.831,5.639,11.556,10.456c0.432,0.766,0.668,0.55,0.834-0.042c0.348-6.186,5.855-11.24,10.955-10.55
            c8.3,0.108,13.344,9.393,11.926,17.251c-1.733,9.6-6.877,15.38-10.771,21.332C36.585,44.811,30.654,53.715,28.742,58
            c0,0-6.027-9.222-13.87-20.067c-5.243-7.252-9.44-15.11-9.831-21.875C4.595,8.327,7.751,1.399,16.491,0.199L16.491,0.199z"/>
        <path id="numeral" d="M9.842,0C5.149,0.091,2.822,4.021,2.797,7.953l0.004,10.317H0v3.426h2.801c0,0,0.049,1.564,0.041,2.503
            c-0.039,4.637,1.6,7.447,4.797,8.226c3.066,0.559,4.666-0.102,7-1.311c0.849,0.353,1.441,1.08,2.349,1.172
            c1.004,0.102,3.096,0.054,3.096,0.054l-0.058-3.515l-1.045-0.152c-2-0.034-2.866-0.733-2.649-1.982
            c0.424-0.813,0.485-1.405,0.524-2.389V6.849C16.796,2.572,13.299,0.038,9.842,0z M9.697,3.403c2.239-0.035,4.104,2.573,4.053,5.246
            l0.035,13.481c0.073,0.848-0.062,1.677-0.437,2.259c-0.295-0.86-4.93-5.597-7.248-5.378c0,0-0.094,0.239-0.16-5.686
            c-0.028-2.91-0.793-7.253,1.822-9.214C8.415,3.63,9.07,3.412,9.697,3.403z M12.038,28.031c0.205,0.416-0.556,0.826-1.367,1.053
            c-2.295,0.64-4.545-0.791-4.617-4.08c-0.021-1.003-0.088-2.075,0.265-2.233C7.372,22.296,11.417,26.779,12.038,28.031z"/>
    </defs>

        <rect width="100%" height="100%" rx="20" ry="20" fill="#000000"/>
    <rect width="94%" height="94%" x="3%" y="3%" rx="20" ry="20" fill="#FEFEFE"/>

    <!-- Little Card -->
    <g class="mini-card">
        <use xlink:href="#numeral" transform="matrix(3.5,0,0,3.5,15,33.95)"/>
        <use xlink:href="#suit" transform="matrix(2,0,0,2,90,33.95)"/>
    </g>
</svg>
